<?xml version="1.0" standalone="no"?>
<!DOCTYPE svg PUBLIC "-//W3C//DTD SVG 20010904//EN"
 "http://www.w3.org/TR/2001/REC-SVG-20010904/DTD/svg10.dtd">
<svg version="1.0" xmlns="http://www.w3.org/2000/svg"
 width="225.000000pt" height="225.000000pt" viewBox="0 0 225.000000 225.000000"
 preserveAspectRatio="xMidYMid meet">

<g transform="translate(0.000000,225.000000) scale(0.100000,-0.100000)"
fill="#000000" stroke="none">
<path d="M1025 2243 c-210 -25 -375 -85 -536 -193 -82 -56 -233 -207 -289
-289 -228 -339 -259 -754 -85 -1117 137 -284 368 -487 665 -583 132 -42 237
-55 399 -48 262 10 479 97 682 270 67 58 182 190 213 246 122 218 166 375 166
595 0 450 -243 829 -652 1020 -167 78 -400 119 -563 99z m-331 -496 c51 -28
78 -74 78 -131 0 -90 -65 -149 -161 -149 -76 0 -126 29 -153 90 -61 139 99
268 236 190z m891 -398 c69 -26 116 -67 152 -136 47 -88 55 -162 51 -463 l-3
-265 -142 -3 -141 -3 -4 268 c-3 244 -5 272 -23 308 -53 106 -175 112 -249 12
-20 -27 -21 -44 -26 -305 l-5 -277 -141 -3 c-108 -2 -143 0 -145 10 -2 7 -3
203 -1 436 l3 422 145 0 144 0 0 -52 0 -51 38 37 c89 90 215 113 347 65z
m-835 -434 l0 -436 -142 3 -143 3 -3 433 -2 432 145 0 145 0 0 -435z"/>
</g>
</svg>
