<?xml version="1.0" standalone="no"?>
<!DOCTYPE svg PUBLIC "-//W3C//DTD SVG 20010904//EN"
 "http://www.w3.org/TR/2001/REC-SVG-20010904/DTD/svg10.dtd">
<svg version="1.0" xmlns="http://www.w3.org/2000/svg"
 width="224.000000pt" height="225.000000pt" viewBox="0 0 224.000000 225.000000"
 preserveAspectRatio="xMidYMid meet">

<g transform="translate(0.000000,225.000000) scale(0.100000,-0.100000)"
fill="#000000" stroke="none">
<path d="M960 2230 c-98 -15 -209 -49 -306 -95 -309 -144 -527 -408 -617 -749
-18 -68 -21 -109 -21 -256 0 -149 3 -187 22 -260 12 -46 26 -86 30 -90 4 -3 8
-13 10 -22 5 -33 32 -88 43 -88 6 0 9 -7 5 -15 -3 -8 -2 -15 3 -15 9 0 37 -60
33 -73 -1 -4 4 -6 10 -5 8 2 12 -5 10 -16 -2 -11 1 -15 8 -11 6 4 18 1 27 -7
15 -11 16 -11 10 4 -3 10 -3 17 1 17 20 -3 33 2 27 11 -3 6 1 7 9 4 9 -3 16
-12 16 -20 0 -8 5 -14 10 -14 6 0 10 8 10 18 0 10 5 23 11 29 8 8 8 17 0 31
-31 59 -36 835 -6 983 38 188 184 328 375 358 88 15 794 14 879 0 145 -24 282
-123 337 -243 50 -110 56 -169 56 -586 1 -421 -4 -475 -57 -581 -34 -67 -116
-153 -175 -184 -66 -33 -218 -78 -245 -71 -13 3 -38 -1 -56 -9 -34 -14 -34
-14 -6 -15 20 0 27 -5 27 -19 0 -11 9 -23 20 -26 11 -3 20 -13 20 -21 0 -17
46 -37 63 -27 7 3 3 -3 -7 -15 -19 -22 -19 -22 10 -22 17 0 34 3 40 8 5 4 1
-1 -9 -10 -25 -24 -9 -23 27 1 17 11 33 18 38 15 11 -7 139 79 219 148 174
149 305 378 353 615 23 110 23 302 2 416 -44 232 -147 426 -314 592 -168 167
-380 276 -603 309 -103 15 -258 18 -339 6z"/>
<path d="M764 1800 c-158 -14 -247 -73 -294 -196 -21 -55 -23 -78 -28 -344 -5
-299 7 -521 32 -603 15 -50 63 -123 74 -112 4 3 1 10 -7 14 -10 7 -9 9 3 14 9
4 15 3 15 -1 -3 -21 3 -32 17 -32 10 0 14 -6 10 -15 -3 -8 -2 -15 3 -15 18 0
19 14 3 38 l-17 27 32 -23 c30 -21 46 -19 24 3 -6 6 31 11 100 13 83 3 115 0
132 -11 12 -7 36 -17 52 -21 17 -4 49 -16 73 -28 24 -11 60 -25 80 -30 61 -17
310 -30 411 -23 161 12 256 80 298 212 16 52 18 98 18 458 -1 354 -3 406 -18
457 -34 109 -101 173 -212 204 -49 13 -122 17 -385 19 -179 2 -366 0 -416 -5z
m864 -155 c75 -63 32 -175 -66 -175 -36 0 -49 5 -73 31 -88 95 40 228 139 144z
m-426 -96 c203 -43 348 -219 348 -424 0 -172 -98 -323 -257 -397 -62 -29 -77
-32 -173 -32 -102 -1 -107 0 -183 37 -99 49 -160 110 -206 207 -35 72 -36 79
-36 185 0 103 2 114 32 177 88 186 283 287 475 247z"/>
<path d="M1044 1390 c-56 -18 -127 -73 -159 -124 -27 -45 -30 -57 -30 -135 1
-68 5 -95 22 -127 104 -198 384 -201 483 -4 90 178 -27 385 -223 396 -34 2
-76 -1 -93 -6z"/>
<path d="M318 543 c5 -21 7 -23 10 -9 2 10 0 22 -6 28 -6 6 -7 0 -4 -19z"/>
<path d="M266 495 c4 -8 13 -15 21 -15 12 0 12 2 -1 15 -8 8 -17 15 -20 15 -3
0 -3 -7 0 -15z"/>
<path d="M337 485 c3 -8 9 -12 14 -9 12 7 11 11 -5 17 -10 4 -13 1 -9 -8z"/>
</g>
</svg>
